<svg width="28" height="24" viewBox="0 0 28 24" fill="none" xmlns="http://www.w3.org/2000/svg">
<path d="M1.47806 7.11257e-05C1.35326 -0.00153849 1.22962 0.0241895 1.11582 0.075449C1.00202 0.126708 0.900823 0.202257 0.819329 0.296789C0.737835 0.391322 0.678022 0.502548 0.644089 0.622657C0.610156 0.742766 0.602926 0.868847 0.622906 0.992048L4.25303 23.0293C4.29826 23.299 4.43706 23.5441 4.64506 23.7216C4.85306 23.8991 5.11695 23.9977 5.39038 23.9999H22.8056C23.0105 24.0026 23.2096 23.9315 23.3666 23.7996C23.5236 23.6678 23.6279 23.484 23.6607 23.2816L27.2908 0.996324C27.3108 0.873123 27.3036 0.747042 27.2697 0.626933C27.2357 0.506823 27.1759 0.395598 27.0944 0.301065C27.0129 0.206533 26.9117 0.130984 26.7979 0.0797248C26.6841 0.0284653 26.5605 0.00273717 26.4357 0.00434678L1.47806 7.11257e-05ZM16.7639 15.9273H11.2054L9.70035 8.06416H18.1108L16.7639 15.9273Z" fill="#2684FF"/>
</svg>
