<svg width="27" height="24" viewBox="0 0 27 24" fill="none" xmlns="http://www.w3.org/2000/svg">
<g style="mix-blend-mode:luminosity">
<path d="M26.3042 13.7221L24.845 9.23708L21.9574 0.341211C21.9241 0.241965 21.8605 0.155676 21.7756 0.0945395C21.6906 0.0334026 21.5886 0.000509261 21.4839 0.000509261C21.3793 0.000509261 21.2773 0.0334026 21.1923 0.0945395C21.1073 0.155676 21.0438 0.241965 21.0105 0.341211L18.1229 9.23168H8.52867L5.64106 0.341211C5.60803 0.241869 5.54456 0.155448 5.45965 0.0942033C5.37475 0.0329589 5.27271 0 5.16802 0C5.06333 0 4.9613 0.0329589 4.8764 0.0942033C4.79149 0.155448 4.72802 0.241869 4.69499 0.341211L1.81201 9.23168L0.352772 13.7221C0.287581 13.9212 0.287033 14.1358 0.351206 14.3353C0.415379 14.5347 0.540986 14.7088 0.710058 14.8325L13.3262 24L25.9392 14.8325C26.1095 14.7096 26.2365 14.536 26.302 14.3365C26.3676 14.1371 26.3684 13.922 26.3042 13.7221Z" fill="#FC6D26"/>
<path d="M13.3293 23.9915L18.126 9.23091H8.53253L13.3293 23.9915Z" fill="#E24329"/>
<path d="M13.3262 23.9923L8.52868 9.23091H1.8151L13.3262 23.9923Z" fill="#FC6D26"/>
<path d="M1.8097 9.23631L0.350461 13.7213C0.285753 13.9207 0.285685 14.1354 0.350263 14.3348C0.414841 14.5342 0.540765 14.7081 0.710062 14.8317L13.3239 24L1.8097 9.23631Z" fill="#FCA326"/>
<path d="M1.81201 9.23631H8.53407L5.64106 0.345843C5.60782 0.246598 5.54423 0.160309 5.45928 0.0991719C5.37432 0.038035 5.27231 0.00514221 5.16764 0.00514221C5.06298 0.00514221 4.96096 0.038035 4.87601 0.0991719C4.79105 0.160309 4.72746 0.246598 4.69422 0.345843L1.81201 9.23631Z" fill="#E24329"/>
<path d="M13.3293 23.9923L18.126 9.23091H24.8481L13.3293 23.9923Z" fill="#FC6D26"/>
<path d="M24.8434 9.23631L26.3027 13.7213C26.3678 13.9206 26.3682 14.1353 26.3037 14.3348C26.2393 14.5343 26.1133 14.7083 25.9438 14.8317L13.33 23.9915L24.8434 9.23631Z" fill="#FCA326"/>
<path d="M24.8465 9.23631H18.1252L21.0128 0.345846C21.0459 0.246504 21.1093 0.160083 21.1942 0.0988388C21.2792 0.0375943 21.3812 0.00463486 21.4859 0.00463486C21.5906 0.00463486 21.6926 0.0375943 21.7775 0.0988388C21.8624 0.160083 21.9259 0.246504 21.9589 0.345846L24.8465 9.23631Z" fill="#E24329"/>
</g>
</svg>
