<svg width="14" height="14" viewBox="0 0 14 14" fill="none" xmlns="http://www.w3.org/2000/svg">
<path d="M11.0833 6.41667H2.91667C2.27233 6.41667 1.75 6.93901 1.75 7.58334V11.6667C1.75 12.311 2.27233 12.8333 2.91667 12.8333H11.0833C11.7277 12.8333 12.25 12.311 12.25 11.6667V7.58334C12.25 6.93901 11.7277 6.41667 11.0833 6.41667Z" stroke="#838383" stroke-linecap="round" stroke-linejoin="round"/>
<path d="M4.08334 6.41667V4.08334C4.08334 3.30979 4.39063 2.56792 4.93762 2.02094C5.4846 1.47396 6.22646 1.16667 7.00001 1.16667C7.77356 1.16667 8.51542 1.47396 9.0624 2.02094C9.60939 2.56792 9.91668 3.30979 9.91668 4.08334V6.41667" stroke="#838383" stroke-linecap="round" stroke-linejoin="round"/>
</svg>
